
<svg fill="none" height="233" viewBox="0 0 850 233" width="850" xmlns="http://www.w3.org/2000/svg"><g fill="#fff"><path d="m192.032 186.199c.531.053 1.004-.335 1.056-.866.053-.53-.334-1.003-.865-1.056s-1.004.335-1.057.866c-.052.53.335 1.003.866 1.056z" opacity=".11"/><path d="m194.627 191.791c.398.039.753-.251.792-.649.04-.398-.251-.753-.649-.792-.398-.04-.752.251-.792.649-.039.398.251.752.649.792z"/><path d="m211.481 183.28c.398.04.752-.251.792-.649.039-.398-.251-.752-.649-.792-.398-.039-.753.251-.792.649-.04.398.251.753.649.792z"/><path d="m170.747 178.265c.398.039.753-.251.793-.649.039-.398-.252-.753-.65-.793-.397-.039-.752.252-.792.65-.039.397.251.752.649.792z"/><path d="m145.825 187.432c.531.052 1.004-.335 1.056-.866.053-.531-.335-1.004-.865-1.057-.531-.052-1.004.335-1.057.866-.052.531.335 1.004.866 1.057z" opacity=".11"/><path d="m137.75 175.959c.265.026.501-.167.528-.432.026-.266-.168-.502-.433-.528s-.501.167-.527.432c-.027.265.167.502.432.528z"/><path d="m188.728 204.787c.265.027.501-.167.527-.432.027-.265-.167-.502-.432-.528s-.502.167-.528.432c-.026.266.167.502.433.528z"/><path d="m303.443 195.186c.266.026.502-.168.528-.433s-.167-.501-.432-.528c-.265-.026-.502.168-.528.433s.167.501.432.528z"/><path d="m358.372 174.442c.265.027.502-.167.528-.432s-.167-.501-.433-.528c-.265-.026-.501.168-.527.433-.027.265.167.501.432.527z"/><path d="m373.628 211.368c.265.027.501-.167.528-.432.026-.265-.168-.502-.433-.528s-.501.167-.527.432c-.027.266.167.502.432.528z"/><path d="m29.9678 176.899c.2652.027.5014-.167.5278-.432.0263-.265-.1673-.501-.4325-.528-.2651-.026-.5014.168-.5278.433-.0263.265.1673.501.4325.527z"/><path d="m25.3418 150.248c.2652.026.5015-.167.5278-.432.0263-.266-.1673-.502-.4325-.528-.2651-.026-.5014.167-.5277.432s.1673.502.4324.528z" opacity=".11"/><path d="m3.59182 159.246c.26516.026.50145-.167.52777-.432.02633-.265-.16729-.502-.43245-.528s-.50145.167-.52777.432c-.02632.266.1673.502.43245.528z" opacity=".11"/><path d="m16.5806 189.64c.2651.026.5014-.168.5278-.433.0263-.265-.1673-.501-.4325-.528-.2651-.026-.5014.168-.5278.433-.0263.265.1673.501.4325.528z" opacity=".11"/><path d="m132.804 181.772c.265.027.501-.167.528-.432.026-.265-.168-.501-.433-.528-.265-.026-.501.168-.528.433-.026.265.168.501.433.527z" opacity=".11"/><path d="m186.056 221.988c.265.026.501-.167.527-.433.027-.265-.167-.501-.432-.527-.265-.027-.501.167-.528.432-.026.265.168.502.433.528z" opacity=".11"/><path d="m288.752 206.337c.265.026.501-.167.528-.432.026-.266-.168-.502-.433-.528-.265-.027-.501.167-.527.432-.027.265.167.502.432.528z" opacity=".11"/><path d="m53.2578 167.086c.2652.026.5015-.168.5278-.433s-.1673-.501-.4324-.528c-.2652-.026-.5015.168-.5278.433s.1673.501.4324.528z" opacity=".3"/><path d="m166.309 152.114c.265.026.501-.167.527-.433.027-.265-.167-.501-.432-.527-.265-.027-.502.167-.528.432s.167.502.433.528z"/><path d="m250.375 138.498c.265.026.501-.167.528-.432.026-.265-.168-.502-.433-.528s-.501.167-.527.432c-.027.266.167.502.432.528z"/><path d="m129.259 193.063c.265.026.501-.168.528-.433.026-.265-.168-.501-.433-.528-.265-.026-.501.168-.528.433-.026.265.168.501.433.528z"/><path d="m95.6348 189.726c.2652.026.5014-.168.5278-.433.0263-.265-.1673-.501-.4325-.528-.2651-.026-.5014.168-.5278.433-.0263.265.1673.501.4325.528z" opacity=".3"/><path d="m59.209 156.036c.2652.027.5014-.167.5278-.432.0263-.265-.1673-.502-.4325-.528-.2651-.026-.5014.167-.5277.432-.0264.266.1672.502.4324.528z" opacity=".11"/><path d="m173.814 164.503c.266.026.502-.167.528-.432.027-.266-.167-.502-.432-.528-.265-.027-.502.167-.528.432s.167.502.432.528z" opacity=".3"/><path d="m136.521 203.002c.266.026.502-.167.528-.432.027-.266-.167-.502-.432-.528-.265-.027-.502.167-.528.432s.167.502.432.528z" opacity=".3"/><path d="m77.9219 202.034c.2652.026.5014-.168.5278-.433.0263-.265-.1673-.501-.4325-.527-.2651-.027-.5014.167-.5277.432-.0264.265.1672.501.4324.528z" opacity=".3"/><path d="m67.1885 168.471c.2652.027.5014-.167.5278-.432.0263-.265-.1673-.502-.4325-.528-.2651-.026-.5014.167-.5278.433-.0263.265.1673.501.4325.527z" opacity=".3"/><path d="m376.096 176.689c.265.026.501-.168.527-.433.027-.265-.167-.501-.432-.528-.265-.026-.501.168-.528.433-.026.265.168.501.433.528z" opacity=".3"/><path d="m300.718 149.315c.265.027.501-.167.528-.432.026-.265-.168-.501-.433-.528-.265-.026-.501.168-.528.433-.026.265.168.501.433.527z" opacity=".11"/><path d="m361.078 196.054c.265.026.502-.168.528-.433s-.167-.501-.433-.527c-.265-.027-.501.167-.527.432-.027.265.167.501.432.528z" opacity=".11"/><path d="m239.123 188.313c.531.053 1.004-.334 1.056-.865.053-.531-.335-1.004-.865-1.057-.531-.052-1.004.335-1.057.866s.335 1.004.866 1.056z" opacity=".3"/><path d="m268.895 176.719c.531.052 1.004-.335 1.057-.866.052-.531-.335-1.004-.866-1.056-.531-.053-1.004.334-1.056.865-.053.531.334 1.004.865 1.057z" opacity=".11"/><path d="m270.325 159.883c.398.04.752-.251.792-.649.039-.398-.251-.752-.649-.792-.398-.039-.753.251-.792.649-.04.398.251.753.649.792z"/><path d="m232.176 227.029c.398.04.753-.251.792-.649.04-.398-.251-.752-.649-.792-.398-.039-.752.251-.792.649-.039.398.251.753.649.792z"/><path d="m390.692 232.466c.398.04.752-.251.792-.649.039-.398-.251-.752-.649-.792-.398-.039-.753.251-.792.649-.04.398.251.753.649.792z"/><path d="m69.764 213.351c.398.039.7526-.252.7921-.649.0395-.398-.251-.753-.649-.793-.398-.039-.7526.251-.7921.649s.2511.753.649.793z"/><path d="m6.97985 195.963c.39796.039.7526-.251.79211-.649s-.25108-.753-.64904-.792c-.39797-.04-.7526.251-.79211.649-.0395.398.25108.752.64904.792z"/><path d="m.720576 175.938c.397964.04.752594-.251.792104-.649s-.25108-.752-.649039-.792c-.397962-.039-.752604.251-.7921098.649-.0395059.398.2510818.753.6490448.792z"/><path d="m246.317 167.202c.398.04.752-.251.792-.649.039-.398-.251-.753-.649-.792-.398-.04-.753.251-.792.649-.04.398.251.753.649.792z"/><path d="m149.209 214.448c.398.04.753-.251.792-.649.04-.398-.251-.752-.649-.792-.398-.039-.752.251-.792.649-.039.398.251.753.649.792z"/><path d="m278.203 227.121c.397.04.752-.251.792-.649.039-.398-.251-.753-.649-.792-.398-.04-.753.251-.793.649-.039.398.252.753.65.792z"/><path d="m408.732 207.092c.398.039.752-.251.792-.649.039-.398-.251-.753-.649-.792-.398-.04-.753.251-.792.649-.04.398.251.752.649.792z"/><path d="m422.884 181.819c.398.04.753-.251.792-.649.04-.398-.251-.752-.649-.792-.398-.039-.752.251-.792.649-.039.398.251.753.649.792z"/><path d="m309.907 164.299c.531.052 1.004-.335 1.056-.866.053-.531-.334-1.004-.865-1.056-.531-.053-1.004.335-1.057.865-.052.531.335 1.004.866 1.057z" opacity=".3"/><path d="m313.289 130.194c.531.052 1.004-.335 1.056-.866.053-.531-.335-1.004-.865-1.056-.531-.053-1.004.335-1.057.865-.053.531.335 1.004.866 1.057z"/><path d="m333.594 177.322c.398.039.753-.251.792-.649.04-.398-.251-.753-.649-.792-.398-.04-.752.251-.792.649-.039.398.251.752.649.792z"/><path d="m358.751 160.901c.53.053 1.003-.335 1.056-.865.053-.531-.335-1.004-.865-1.057-.531-.052-1.004.335-1.057.866s.335 1.004.866 1.056z" opacity=".3"/><path d="m402.919 199.726c.53.053 1.003-.334 1.056-.865s-.335-1.004-.866-1.057c-.53-.052-1.003.335-1.056.866s.335 1.004.866 1.056z" opacity=".3"/><path d="m346.624 195.106c.531.053 1.004-.335 1.056-.865.053-.531-.335-1.004-.865-1.057-.531-.052-1.004.335-1.057.866s.335 1.004.866 1.056z" opacity=".3"/><path d="m60.1013 195.9c.5308.053 1.0037-.335 1.0564-.865.0527-.531-.3348-1.004-.8656-1.057-.5308-.052-1.0038.335-1.0564.866-.0527.531.3348 1.004.8656 1.056z" opacity=".3"/><path d="m23.8122 165.617c.5308.053 1.0038-.335 1.0565-.866.0527-.53-.3349-1.003-.8657-1.056-.5307-.053-1.0037.335-1.0564.866-.0527.53.3349 1.003.8656 1.056z" opacity=".3"/><path d="m384.655 183.361c.531.053 1.004-.335 1.056-.865.053-.531-.334-1.004-.865-1.057s-1.004.335-1.057.866c-.052.531.335 1.004.866 1.056z" opacity=".11"/><path d="m94.1218 156.106c.5308.053 1.0038-.335 1.0564-.865.0527-.531-.3348-1.004-.8656-1.057-.5308-.052-1.0037.335-1.0564.866s.3348 1.004.8656 1.056z" opacity=".3"/><path d="m82.1071 145.212c.5308.053 1.0038-.335 1.0565-.866s-.3349-1.004-.8656-1.056c-.5308-.053-1.0038.335-1.0565.865-.0527.531.3349 1.004.8656 1.057z" opacity=".11"/><path d="m75.2146 175.573c.5307.053 1.0037-.335 1.0564-.866.0527-.53-.3349-1.003-.8656-1.056-.5308-.053-1.0038.335-1.0565.866-.0527.53.3349 1.003.8657 1.056z" opacity=".3"/><path d="m105.28 178.071c.398.04.752-.251.792-.649.039-.398-.251-.752-.649-.792-.398-.039-.753.251-.792.649-.04.398.251.753.649.792z"/><path d="m382.705 36.0058c.531.0527 1.004-.3349 1.056-.8657.053-.5307-.335-1.0037-.865-1.0564-.531-.0527-1.004.3349-1.057.8656-.053.5308.335 1.0038.866 1.0565z" opacity=".11"/><path d="m385.299 41.5981c.398.0396.753-.251.792-.649.04-.398-.251-.7526-.649-.7921s-.752.2511-.792.649c-.039.398.251.7526.649.7921z"/><path d="m402.154 33.0869c.398.0395.752-.2511.792-.649.039-.398-.251-.7526-.649-.7921-.398-.0396-.753.251-.792.649-.04.398.251.7526.649.7921z"/><path d="m361.419 28.0708c.398.0395.753-.2511.792-.649.04-.398-.251-.7527-.649-.7922s-.752.2511-.792.6491c-.039.398.251.7526.649.7921z"/><path d="m336.497 57.2372c.531.0527 1.004-.3348 1.056-.8656.053-.5308-.335-1.0038-.865-1.0565-.531-.0527-1.004.3349-1.057.8657-.053.5307.335 1.0037.866 1.0564z" opacity=".11"/><path d="m328.422 45.7657c.265.0263.501-.1673.528-.4325.026-.2651-.168-.5014-.433-.5277s-.501.1673-.528.4324c-.026.2652.168.5015.433.5278z"/><path d="m379.4 54.5933c.266.0264.502-.1673.528-.4324.027-.2652-.167-.5015-.432-.5278s-.502.1673-.528.4325c-.026.2651.167.5014.432.5277z"/><path d="m484.115 84.9923c.265.0263.502-.1673.528-.4325s-.167-.5014-.432-.5278c-.266-.0263-.502.1673-.528.4325-.027.2651.167.5014.432.5278z"/><path d="m539.045 64.2491c.265.0263.501-.1673.528-.4325.026-.2651-.168-.5014-.433-.5277-.265-.0264-.501.1673-.528.4324-.026.2652.168.5015.433.5278z"/><path d="m554.299 101.176c.265.026.501-.167.528-.433.026-.265-.168-.501-.433-.527-.265-.027-.501.167-.528.432-.026.265.168.502.433.528z"/><path d="m220.641 46.7061c.265.0264.501-.1673.527-.4324.027-.2652-.167-.5015-.432-.5278s-.501.1673-.528.4325c-.026.2651.167.5014.433.5277z"/><path d="m216.014 20.0538c.265.0263.501-.1673.527-.4325.027-.2651-.167-.5014-.432-.5277-.265-.0264-.501.1672-.528.4324-.026.2651.168.5014.433.5278z" opacity=".11"/><path d="m194.265 29.0518c.265.0263.501-.1673.527-.4324.027-.2652-.167-.5015-.432-.5278s-.501.1673-.528.4325c-.026.2651.168.5014.433.5277z" opacity=".11"/><path d="m207.254 59.4459c.265.0263.501-.1673.528-.4325.026-.2651-.168-.5014-.433-.5278-.265-.0263-.501.1673-.528.4325-.026.2652.168.5014.433.5278z" opacity=".11"/><path d="m323.477 51.5787c.265.0263.501-.1673.527-.4325.027-.2651-.167-.5014-.432-.5277-.265-.0264-.502.1672-.528.4324-.026.2651.167.5014.433.5278z" opacity=".11"/><path d="m376.728 71.794c.265.0263.501-.1673.527-.4325.027-.2651-.167-.5014-.432-.5277s-.502.1673-.528.4324c-.026.2652.167.5015.433.5278z" opacity=".11"/><path d="m469.426 96.1431c.265.0264.501-.1673.528-.4324.026-.2652-.168-.5015-.433-.5278s-.501.1673-.528.4325c-.026.2651.168.5014.433.5277z" opacity=".11"/><path d="m243.93 36.8917c.265.0263.501-.1673.527-.4325.027-.2651-.167-.5014-.432-.5277-.265-.0264-.501.1672-.528.4324-.026.2652.168.5015.433.5278z" opacity=".3"/><path d="m356.981 1.92c.266.02632.502-.1673.528-.43245.027-.26516-.167-.501458-.432-.527781-.265-.026322-.502.167301-.528.432451-.026.26516.167.50146.432.52778z"/><path d="m431.048 28.3038c.265.0263.501-.1673.528-.4325.026-.2651-.168-.5014-.433-.5277-.265-.0264-.501.1673-.528.4324-.026.2652.168.5015.433.5278z"/><path d="m319.932 62.8697c.265.0263.501-.1673.527-.4325.027-.2651-.167-.5014-.432-.5277s-.501.1672-.528.4324c-.026.2652.167.5015.433.5278z"/><path d="m286.307 59.5313c.265.0263.501-.1673.527-.4325.027-.2651-.167-.5014-.432-.5277s-.501.1673-.528.4324c-.026.2652.167.5015.433.5278z" opacity=".3"/><path d="m249.881 25.8429c.265.0263.501-.1673.528-.4325.026-.2652-.168-.5015-.433-.5278s-.501.1673-.528.4325c-.026.2651.168.5014.433.5278z" opacity=".11"/><path d="m364.487 14.3092c.265.0263.502-.1673.528-.4325s-.167-.5014-.432-.5278c-.266-.0263-.502.1673-.528.4325-.026.2651.167.5014.432.5278z" opacity=".3"/><path d="m327.194 72.8082c.266.0263.502-.1673.528-.4325.026-.2651-.167-.5014-.432-.5277-.265-.0264-.502.1673-.528.4324-.026.2652.167.5015.432.5278z" opacity=".3"/><path d="m268.595 71.8409c.265.0263.501-.1673.528-.4325.026-.2651-.168-.5014-.433-.5277-.265-.0264-.501.1672-.528.4324-.026.2652.168.5015.433.5278z" opacity=".3"/><path d="m257.861 38.2774c.265.0263.502-.1673.528-.4324.026-.2652-.167-.5015-.432-.5278s-.502.1673-.528.4324c-.026.2652.167.5015.432.5278z" opacity=".3"/><path d="m556.769 66.4947c.265.0263.501-.1673.527-.4324.027-.2652-.167-.5015-.432-.5278s-.502.1673-.528.4324c-.026.2652.167.5015.433.5278z" opacity=".3"/><path d="m481.391 39.1221c.265.0264.501-.1673.527-.4324.027-.2652-.167-.5015-.432-.5278s-.501.1673-.528.4325c-.026.2651.167.5014.433.5277z" opacity=".11"/><path d="m541.75 85.8599c.265.0264.501-.1673.528-.4324.026-.2652-.167-.5015-.433-.5278-.265-.0263-.501.1673-.527.4325-.027.2651.167.5014.432.5277z" opacity=".11"/><path d="m419.796 78.1205c.53.0527 1.003-.3348 1.056-.8656s-.335-1.0038-.866-1.0565c-.53-.0527-1.003.3349-1.056.8657-.053.5307.335 1.0037.866 1.0564z" opacity=".3"/><path d="m449.567 66.5243c.531.0527 1.004-.3349 1.057-.8656.052-.5308-.335-1.0038-.866-1.0565-.531-.0526-1.004.3349-1.057.8657-.052.5307.335 1.0037.866 1.0564z" opacity=".11"/><path d="m450.997 49.6894c.398.0395.753-.251.793-.649.039-.398-.252-.7526-.649-.7921-.398-.0395-.753.2511-.793.649-.039.398.251.7526.649.7921z"/><path d="m412.849 76.8349c.398.0395.753-.2511.792-.649.04-.398-.251-.7526-.649-.7921s-.753.2511-.792.649c-.04.398.251.7526.649.7921z"/><path d="m571.365 122.272c.398.039.752-.251.792-.649.039-.398-.251-.753-.649-.792-.398-.04-.753.251-.792.649-.04.398.251.752.649.792z"/><path d="m260.436 83.1563c.398.0395.753-.2511.792-.6491.04-.398-.251-.7526-.649-.7921s-.753.2511-.792.649c-.04.398.251.7526.649.7922z"/><path d="m197.653 65.7695c.398.0395.752-.2511.792-.649.039-.398-.251-.7526-.649-.7921s-.753.251-.792.649c-.04.398.251.7526.649.7921z"/><path d="m191.394 45.7446c.398.0395.753-.2511.792-.649.04-.398-.251-.7526-.649-.7921s-.753.2511-.792.649c-.04.398.251.7526.649.7921z"/><path d="m426.989 57.0093c.398.0395.752-.2511.792-.6491.039-.3979-.251-.7526-.649-.7921s-.753.2511-.792.6491c-.04.3979.251.7526.649.7921z"/><path d="m339.881 84.2544c.398.0395.753-.2511.792-.6491.04-.3979-.251-.7526-.649-.7921s-.752.2511-.792.6491c-.039.3979.251.7526.649.7921z"/><path d="m458.875 116.927c.398.039.753-.251.792-.649.04-.398-.251-.753-.649-.792-.398-.04-.752.251-.792.649-.039.398.251.752.649.792z"/><path d="m589.405 96.8984c.398.0395.752-.2511.792-.649.039-.398-.251-.7526-.649-.7921s-.753.2511-.792.649c-.04.398.251.7526.649.7921z"/><path d="m603.556 71.6265c.398.0395.753-.2511.792-.6491.04-.398-.251-.7526-.649-.7921s-.753.2511-.792.649c-.04.398.251.7526.649.7922z"/><path d="m490.58 54.1044c.531.0527 1.004-.3349 1.056-.8657.053-.5307-.335-1.0037-.865-1.0564-.531-.0527-1.004.3349-1.057.8656-.053.5308.335 1.0038.866 1.0565z" opacity=".3"/><path d="m493.962 19.9994c.53.0527 1.003-.3349 1.056-.8656.053-.5308-.335-1.0038-.866-1.0565-.53-.0527-1.003.3349-1.056.8657-.053.5307.335 1.0037.866 1.0564z"/><path d="m514.267 67.1279c.398.0395.753-.2511.792-.649.04-.398-.251-.7526-.649-.7921s-.753.251-.792.649c-.04.398.251.7526.649.7921z"/><path d="m539.425 50.7079c.53.0527 1.003-.3349 1.056-.8656.053-.5308-.335-1.0038-.866-1.0565-.53-.0527-1.003.3349-1.056.8657-.053.5307.335 1.0037.866 1.0564z" opacity=".3"/><path d="m583.591 89.5321c.53.0527 1.003-.3348 1.056-.8656s-.335-1.0038-.866-1.0564c-.53-.0527-1.003.3348-1.056.8656s.335 1.0037.866 1.0564z" opacity=".3"/><path d="m527.296 84.912c.53.0527 1.003-.3349 1.056-.8656.053-.5308-.335-1.0038-.866-1.0565-.53-.0527-1.003.3349-1.056.8657-.053.5307.335 1.0037.866 1.0564z" opacity=".3"/><path d="m250.773 65.706c.531.0527 1.004-.3349 1.057-.8657.052-.5308-.335-1.0037-.866-1.0564s-1.004.3348-1.056.8656c-.053.5308.334 1.0038.865 1.0565z" opacity=".3"/><path d="m214.484 35.4237c.531.0527 1.004-.3348 1.057-.8656.052-.5308-.335-1.0038-.866-1.0564-.531-.0527-1.004.3348-1.057.8656-.052.5307.335 1.0037.866 1.0564z" opacity=".3"/><path d="m565.328 73.1669c.531.0527 1.004-.3349 1.056-.8656.053-.5308-.335-1.0038-.865-1.0565-.531-.0527-1.004.3349-1.057.8657-.052.5307.335 1.0037.866 1.0564z" opacity=".11"/><path d="m284.794 25.9125c.53.0527 1.003-.3349 1.056-.8656.053-.5308-.335-1.0038-.866-1.0565-.53-.0527-1.003.3349-1.056.8656-.053.5308.335 1.0038.866 1.0565z" opacity=".3"/><path d="m272.779 15.0175c.531.0527 1.004-.3349 1.056-.8656.053-.5308-.334-1.0038-.865-1.0565s-1.004.3349-1.057.8657c-.052.5307.335 1.0037.866 1.0564z" opacity=".11"/><path d="m265.886 45.3793c.531.0527 1.004-.3349 1.057-.8656.053-.5308-.335-1.0038-.866-1.0565s-1.004.3349-1.056.8657c-.053.5307.335 1.0037.865 1.0564z" opacity=".3"/><path d="m295.953 47.8769c.397.0395.752-.2511.792-.649.039-.398-.251-.7526-.649-.7921s-.753.2511-.793.649c-.039.398.252.7526.65.7921z"/><path d="m627.809 176.341c.531.052 1.004-.335 1.057-.866.052-.531-.335-1.004-.866-1.056-.531-.053-1.004.335-1.056.865-.053.531.335 1.004.865 1.057z" opacity=".11"/><path d="m630.404 181.933c.398.039.752-.251.792-.649.039-.398-.251-.753-.649-.793-.398-.039-.753.252-.792.649-.04.398.251.753.649.793z"/><path d="m647.258 153.422c.398.039.753-.251.792-.649.04-.398-.251-.753-.649-.792-.398-.04-.752.251-.792.649-.039.398.251.752.649.792z"/><path d="m606.524 168.405c.398.04.752-.251.792-.649.039-.398-.251-.752-.649-.792-.398-.039-.753.251-.792.649-.04.398.251.753.649.792z"/><path d="m581.601 177.572c.531.053 1.004-.335 1.057-.865.052-.531-.335-1.004-.866-1.057s-1.004.335-1.056.866c-.053.53.335 1.003.865 1.056z" opacity=".11"/><path d="m573.526 146.1c.266.026.502-.168.528-.433s-.167-.501-.432-.528c-.265-.026-.502.168-.528.433s.167.501.432.528z"/><path d="m624.504 194.928c.265.026.501-.167.528-.433.026-.265-.168-.501-.433-.527-.265-.027-.501.167-.528.432-.026.265.168.501.433.528z"/><path d="m729.22 185.326c.265.027.501-.167.527-.432.027-.265-.167-.502-.432-.528s-.501.167-.528.432c-.026.266.168.502.433.528z"/><path d="m784.149 164.584c.266.026.502-.167.528-.432.027-.266-.167-.502-.432-.528s-.502.167-.528.432.167.502.432.528z"/><path d="m799.404 201.509c.266.026.502-.167.528-.433.026-.265-.167-.501-.432-.527-.265-.027-.502.167-.528.432s.167.502.432.528z"/><path d="m465.744 147.04c.265.026.502-.167.528-.432s-.167-.502-.433-.528c-.265-.026-.501.167-.527.432-.027.265.167.502.432.528z"/><path d="m461.118 120.389c.265.026.502-.168.528-.433s-.167-.501-.432-.527c-.266-.027-.502.167-.528.432-.027.265.167.501.432.528z" opacity=".11"/><path d="m439.368 129.387c.265.026.502-.167.528-.433.026-.265-.167-.501-.432-.527-.266-.027-.502.167-.528.432-.027.265.167.501.432.528z" opacity=".11"/><path d="m452.356 159.78c.266.027.502-.167.528-.432.027-.265-.167-.502-.432-.528s-.502.167-.528.433c-.026.265.167.501.432.527z" opacity=".11"/><path d="m568.581 151.912c.265.026.502-.167.528-.432s-.167-.502-.433-.528c-.265-.026-.501.167-.527.432-.027.266.167.502.432.528z" opacity=".11"/><path d="m621.826 212.125c.265.026.502-.168.528-.433s-.167-.501-.433-.528c-.265-.026-.501.168-.527.433-.027.265.167.501.432.528z" opacity=".11"/><path d="m714.529 196.478c.265.026.502-.167.528-.432.026-.266-.167-.502-.432-.528-.266-.026-.502.167-.528.432s.167.502.432.528z" opacity=".11"/><path d="m489.034 137.227c.265.026.502-.168.528-.433s-.167-.501-.432-.528c-.266-.026-.502.168-.528.433-.027.265.167.501.432.528z" opacity=".3"/><path d="m602.085 122.255c.265.026.501-.167.528-.433.026-.265-.168-.501-.433-.527-.265-.027-.501.167-.527.432-.027.265.167.502.432.528z"/><path d="m676.151 128.639c.266.026.502-.168.528-.433s-.167-.501-.432-.527c-.265-.027-.502.167-.528.432s.167.501.432.528z"/><path d="m565.034 163.204c.265.027.502-.167.528-.432s-.167-.502-.432-.528c-.266-.026-.502.167-.528.432-.027.266.167.502.432.528z"/><path d="m531.411 159.867c.265.026.502-.168.528-.433s-.167-.501-.433-.527c-.265-.027-.501.167-.527.432-.027.265.167.501.432.528z" opacity=".3"/><path d="m494.985 126.177c.266.026.502-.167.528-.433.026-.265-.167-.501-.432-.527-.265-.027-.502.167-.528.432s.167.501.432.528z" opacity=".11"/><path d="m609.591 134.644c.265.026.501-.167.528-.432.026-.265-.168-.502-.433-.528s-.501.167-.528.432c-.026.266.168.502.433.528z" opacity=".3"/><path d="m572.298 173.143c.265.026.501-.167.528-.432.026-.265-.168-.502-.433-.528s-.501.167-.528.432c-.026.266.168.502.433.528z" opacity=".3"/><path d="m513.698 172.174c.265.027.502-.167.528-.432s-.167-.502-.432-.528c-.266-.026-.502.167-.528.433-.027.265.167.501.432.527z" opacity=".3"/><path d="m502.965 138.612c.265.027.501-.167.528-.432.026-.265-.168-.502-.433-.528s-.501.167-.528.433c-.026.265.168.501.433.527z" opacity=".3"/><path d="m801.872 166.829c.265.026.502-.167.528-.432s-.167-.502-.433-.528c-.265-.026-.501.167-.527.432-.027.266.167.502.432.528z" opacity=".3"/><path d="m726.495 139.457c.265.026.502-.167.528-.432.026-.266-.167-.502-.433-.528-.265-.026-.501.167-.527.432-.027.265.167.502.432.528z" opacity=".11"/><path d="m786.854 186.194c.266.027.502-.167.528-.432.027-.265-.167-.501-.432-.528-.265-.026-.502.167-.528.433-.026.265.167.501.432.527z" opacity=".11"/><path d="m664.899 178.454c.531.053 1.004-.334 1.057-.865.052-.531-.335-1.004-.866-1.057-.531-.052-1.004.335-1.056.866-.053.531.334 1.004.865 1.056z" opacity=".3"/><path d="m694.672 166.859c.53.053 1.003-.335 1.056-.865.053-.531-.335-1.004-.866-1.057-.53-.052-1.003.335-1.056.866s.335 1.004.866 1.056z" opacity=".11"/><path d="m696.102 150.024c.398.04.752-.251.792-.649s-.251-.752-.649-.792c-.398-.039-.753.251-.792.649-.04.398.251.753.649.792z"/><path d="m657.953 197.17c.398.039.753-.251.793-.649.039-.398-.252-.753-.649-.792-.398-.04-.753.251-.793.649-.039.398.252.752.649.792z"/><path d="m816.468 222.607c.398.04.753-.251.792-.649.04-.398-.251-.752-.649-.792-.398-.039-.752.251-.792.649-.039.398.251.753.649.792z"/><path d="m505.54 183.492c.398.039.753-.251.792-.649.04-.398-.251-.753-.649-.792-.398-.04-.752.251-.792.649-.039.398.251.752.649.792z"/><path d="m442.757 166.104c.398.04.753-.251.792-.649.04-.398-.251-.752-.649-.792-.398-.039-.752.251-.792.649-.039.398.251.753.649.792z"/><path d="m436.497 146.08c.398.04.753-.251.793-.649.039-.398-.252-.753-.649-.792-.398-.04-.753.251-.793.649-.039.398.251.753.649.792z"/><path d="m672.094 157.344c.398.039.753-.251.792-.649.04-.398-.251-.753-.649-.792-.398-.04-.752.251-.792.649-.039.398.251.752.649.792z"/><path d="m584.986 204.589c.398.04.752-.251.792-.649.039-.398-.251-.752-.649-.792-.398-.039-.753.251-.792.649-.04.398.251.753.649.792z"/><path d="m703.98 217.262c.398.039.752-.251.792-.649.039-.398-.251-.753-.649-.792-.398-.04-.753.251-.792.649-.04.398.251.752.649.792z"/><path d="m834.508 197.233c.398.04.753-.251.792-.649.04-.398-.251-.752-.649-.792-.398-.039-.752.251-.792.649-.039.398.251.753.649.792z"/><path d="m848.661 171.961c.397.039.752-.251.792-.649.039-.398-.251-.753-.649-.792-.398-.04-.753.251-.793.649-.039.398.252.752.65.792z"/><path d="m735.678 154.435c.531.053 1.004-.334 1.057-.865s-.335-1.004-.866-1.057c-.53-.052-1.004.335-1.056.866-.053.531.335 1.004.865 1.056z" opacity=".3"/><path d="m739.065 120.335c.531.053 1.004-.335 1.057-.866.052-.531-.335-1.004-.866-1.056-.531-.053-1.004.335-1.056.865-.053.531.334 1.004.865 1.057z"/><path d="m759.371 167.463c.398.039.753-.251.793-.649.039-.398-.252-.753-.649-.792-.398-.04-.753.251-.793.649-.039.398.251.752.649.792z"/><path d="m784.528 151.042c.531.053 1.004-.334 1.056-.865.053-.531-.334-1.004-.865-1.057-.531-.052-1.004.335-1.057.866-.052.531.335 1.004.866 1.056z" opacity=".3"/><path d="m828.695 189.867c.531.053 1.004-.335 1.056-.866.053-.53-.334-1.003-.865-1.056s-1.004.335-1.057.866c-.052.53.335 1.003.866 1.056z" opacity=".3"/><path d="m772.4 185.247c.531.053 1.004-.335 1.057-.866.052-.53-.335-1.003-.866-1.056s-1.004.335-1.057.866c-.052.53.335 1.003.866 1.056z" opacity=".3"/><path d="m495.878 166.041c.53.053 1.003-.335 1.056-.866.053-.53-.335-1.003-.866-1.056-.53-.053-1.003.335-1.056.865-.053.531.335 1.004.866 1.057z" opacity=".3"/><path d="m459.589 135.759c.53.052 1.003-.335 1.056-.866s-.335-1.004-.866-1.056c-.53-.053-1.003.334-1.056.865s.335 1.004.866 1.057z" opacity=".3"/><path d="m810.431 173.502c.531.053 1.004-.335 1.057-.866.052-.531-.335-1.004-.866-1.056-.531-.053-1.004.335-1.056.865-.053.531.335 1.004.865 1.057z" opacity=".11"/><path d="m529.898 126.247c.531.053 1.004-.335 1.057-.866.052-.53-.335-1.003-.866-1.056s-1.004.335-1.056.866c-.053.53.334 1.003.865 1.056z" opacity=".3"/><path d="m517.884 115.352c.53.053 1.003-.334 1.056-.865s-.335-1.004-.866-1.057c-.53-.052-1.003.335-1.056.866s.335 1.004.866 1.056z" opacity=".11"/><path d="m510.991 145.714c.531.052 1.004-.335 1.056-.866.053-.531-.334-1.004-.865-1.056-.531-.053-1.004.335-1.057.865-.052.531.335 1.004.866 1.057z" opacity=".3"/><path d="m541.056 148.212c.398.039.753-.251.792-.649.04-.398-.251-.753-.649-.792-.398-.04-.753.251-.792.649-.04.398.251.752.649.792z"/></g></svg>